<?xml version="1.0" encoding="UTF-8" standalone="no"?>
<!-- Uploaded to: SVG Repo, www.svgrepo.com, Generator: SVG Repo Mixer Tools -->

<svg
   fill="#000000"
   version="1.1"
   id="Layer_1"
   width="4504.6636"
   height="1004.8312"
   viewBox="0 0 1441.4922 321.54602"
   enable-background="new 0 0 256 256"
   xml:space="preserve"
   sodipodi:docname="anvil-horizontal.svg"
   inkscape:version="1.4 (e7c3feb100, 2024-10-09)"
   inkscape:export-filename="anvil-horizontal.png"
   inkscape:export-xdpi="96"
   inkscape:export-ydpi="96"
   xmlns:inkscape="http://www.inkscape.org/namespaces/inkscape"
   xmlns:sodipodi="http://sodipodi.sourceforge.net/DTD/sodipodi-0.dtd"
   xmlns:xlink="http://www.w3.org/1999/xlink"
   xmlns="http://www.w3.org/2000/svg"
   xmlns:svg="http://www.w3.org/2000/svg"><defs
   id="defs1"><linearGradient
     id="linearGradient3"
     inkscape:collect="always"><stop
       style="stop-color:#000000;stop-opacity:1;"
       offset="0"
       id="stop3" /><stop
       style="stop-color:#000000;stop-opacity:0;"
       offset="1"
       id="stop4" /></linearGradient><linearGradient
     inkscape:collect="always"
     xlink:href="#linearGradient3"
     id="linearGradient4"
     x1="0"
     y1="256.21201"
     x2="512.42401"
     y2="256.21201"
     gradientUnits="userSpaceOnUse" /></defs><sodipodi:namedview
   id="namedview1"
   pagecolor="#ffffff"
   bordercolor="#000000"
   borderopacity="0.25"
   inkscape:showpageshadow="2"
   inkscape:pageopacity="0.0"
   inkscape:pagecheckerboard="0"
   inkscape:deskcolor="#d1d1d1"
   inkscape:zoom="0.070178685"
   inkscape:cx="-1218.3186"
   inkscape:cy="1268.1913"
   inkscape:window-width="1786"
   inkscape:window-height="1053"
   inkscape:window-x="0"
   inkscape:window-y="0"
   inkscape:window-maximized="1"
   inkscape:current-layer="Layer_1" />

<g
   id="g4"
   transform="matrix(0.69377676,0,0,0.69377676,-4.2930869e-8,1.0714973e-6)"><g
     style="fill:#c0504d;fill-opacity:1"
     id="g3"
     transform="matrix(-0.57763253,0.57763253,-0.57763253,-0.57763253,527.72739,231.73635)"><g
       id="g2"
       style="fill:#c0504d;fill-opacity:1">
	<g
   id="g1"
   style="fill:#c0504d;fill-opacity:1">
		<path
   d="m 500.424,168.212 c 6.624,0 12,-5.372 12,-12 0,-6.624 -5.376,-12 -12,-12 h -44.212 v -16 h 44.212 c 6.624,0 12,-5.376 12,-12 0,-6.628 -5.376,-12 -12,-12 h -44.212 v -3.88 c -4,-27.848 -19.728,-44.12 -43.992,-44.12 h -4.008 V 12 c 0,-6.624 -5.376,-12 -12,-12 -6.632,0 -12,5.376 -12,12 v 44.212 h -16 V 12 c 0,-6.624 -5.376,-12 -12,-12 -6.632,0 -12,5.376 -12,12 v 44.212 h -16 V 12 c 0,-6.624 -5.376,-12 -12,-12 -6.632,0 -12,5.376 -12,12 v 44.212 h -16 V 12 c 0,-6.624 -5.376,-12 -12,-12 -6.632,0 -12,5.376 -12,12 v 44.212 h -16 V 12 c 0,-6.624 -5.376,-12 -12,-12 -6.632,0 -12,5.376 -12,12 v 44.212 h -16 V 12 c 0,-6.624 -5.376,-12 -12,-12 -6.632,0 -12,5.376 -12,12 v 44.212 h -16 V 12 c 0,-6.624 -5.376,-12 -12,-12 -6.632,0 -12,5.376 -12,12 v 44.212 h -16 V 12 c 0,-6.624 -5.376,-12 -12,-12 -6.632,0 -12,5.376 -12,12 v 44.212 h -3.984 c -24.26,0 -44.016,19.86 -44.016,44.12 v 3.88 H 12 c -6.632,0 -12,5.372 -12,12 0,6.624 5.368,12 12,12 h 44.212 v 16 H 12 c -6.632,0 -12,5.376 -12,12 0,6.628 5.368,12 12,12 h 44.212 v 16 H 12 c -6.632,0 -12,5.372 -12,12 0,6.624 5.368,12 12,12 h 44.212 v 16 H 12 c -6.632,0 -12,5.372 -12,12 0,6.624 5.368,12 12,12 h 44.212 v 16 H 12 c -6.632,0 -12,5.376 -12,12 0,6.628 5.368,12 12,12 h 44.212 v 16 H 12 c -6.632,0 -12,5.372 -12,12 0,6.628 5.368,12 12,12 h 44.212 v 16 H 12 c -6.632,0 -12,5.376 -12,12 0,6.628 5.368,12 12,12 h 44.212 v 16 H 12 c -6.632,0 -12,5.372 -12,12 0,6.624 5.368,12 12,12 h 44.212 v 4.112 c 0,24.264 19.756,43.888 44.016,43.888 h 3.984 v 44.212 c 0,6.624 5.368,12 12,12 6.624,0 12,-5.376 12,-12 v -44.212 h 16 v 44.212 c 0,6.624 5.368,12 12,12 6.624,0 12,-5.376 12,-12 v -44.212 h 16 v 44.212 c 0,6.624 5.368,12 12,12 6.624,0 12,-5.376 12,-12 v -44.212 h 16 v 44.212 c 0,6.624 5.368,12 12,12 6.624,0 12,-5.376 12,-12 v -44.212 h 16 v 44.212 c 0,6.624 5.368,12 12,12 6.624,0 12,-5.376 12,-12 v -44.212 h 16 v 44.212 c 0,6.624 5.368,12 12,12 6.624,0 12,-5.376 12,-12 v -44.212 h 16 v 44.212 c 0,6.624 5.368,12 12,12 6.624,0 12,-5.376 12,-12 v -44.212 h 16 v 44.212 c 0,6.624 5.368,12 12,12 6.624,0 12,-5.376 12,-12 v -44.212 h 4.008 c 24.264,0 43.992,-19.624 43.992,-43.888 v -4.112 h 44.212 c 6.624,0 12,-5.376 12,-12 0,-6.628 -5.376,-12 -12,-12 h -44.212 v -16 h 44.212 c 6.624,0 12,-5.372 12,-12 0,-6.624 -5.376,-12 -12,-12 h -44.212 v -16 h 44.212 c 6.624,0 12,-5.372 12,-12 0,-6.628 -5.376,-12 -12,-12 h -44.212 v -16 h 44.212 c 6.624,0 12,-5.372 12,-12 0,-6.624 -5.376,-12 -12,-12 h -44.212 v -16 h 44.212 c 6.624,0 12,-5.376 12,-12 0,-6.628 -5.376,-12 -12,-12 h -44.212 v -16 h 44.212 c 6.624,0 12,-5.376 12,-12 0,-6.628 -5.376,-12 -12,-12 h -44.212 v -16 z"
   id="path1-6"
   style="fill:#c0504d;fill-opacity:1" />
	</g>
</g></g><path
     d="m 374.10223,186.82203 v -28.9498 H 173.95546 v 9.5308 H 89.36961 c 0,0 12.74744,48.3688 80.17785,48.3688 36.0979,0 40.98244,15.13015 40.98244,22.75478 0,10.00734 -6.07589,26.09057 -43.72254,39.07628 v 27.99672 h 46.10524 c 8.10118,-6.19502 18.22765,-9.76907 29.18807,-9.76907 10.96042,0 21.08689,3.69319 29.18807,9.76907 h 46.82005 c 0,0 0,-17.98938 0,-27.28191 -27.87759,-9.17339 -46.10524,-24.30354 -46.10524,-41.45897 0,-27.04365 45.03302,-48.60708 102.09868,-50.0367 z m -200.14677,-5.1228 c -61.9502,0 -61.9502,-4.7654 -61.9502,-4.7654 h 61.9502 c 0,0 0,2.85924 0,4.7654 z m 9.5308,-9.5308 v -4.7654 h 181.08517 v 4.7654 z"
     id="path1"
     style="fill:#fffef0;fill-opacity:1;stroke-width:1.19135" /></g><g
   id="g5"><text
     xml:space="preserve"
     style="font-size:243.2px;font-family:FreeSans;-inkscape-font-specification:'FreeSans, Normal';text-align:start;letter-spacing:4.8px;writing-mode:lr-tb;direction:ltr;text-anchor:start;fill:#c0504d;fill-opacity:1;stroke-width:0.32"
     x="401.18533"
     y="235.5419"
     id="text6"><tspan
       sodipodi:role="line"
       id="tspan6"
       style="font-style:normal;font-variant:normal;font-weight:bold;font-stretch:normal;font-size:243.2px;font-family:'PT Serif';-inkscape-font-specification:'PT Serif Bold';letter-spacing:4.8px;fill:#c0504d;fill-opacity:1;stroke-width:0.32"
       x="401.18533"
       y="235.5419">Anvil<tspan
   style="font-style:italic;font-variant:normal;font-weight:bold;font-stretch:normal;font-size:200.533px;font-family:Roboto;-inkscape-font-specification:'Roboto Bold';letter-spacing:6.4px;fill:#c0504d;fill-opacity:1"
   id="tspan7" /></tspan></text><text
     xml:space="preserve"
     style="font-weight:bold;font-size:200.533px;font-family:Roboto;-inkscape-font-specification:'Roboto Bold';text-align:start;letter-spacing:6.4px;writing-mode:lr-tb;direction:ltr;text-anchor:start;fill:#c0504d;fill-opacity:1;stroke-width:0.32"
     x="1069.1429"
     y="238.4603"
     id="text2"><tspan
       sodipodi:role="line"
       id="tspan2"
       style="font-style:italic;fill:#c0504d;fill-opacity:1;stroke-width:0.32"
       x="1069.1429"
       y="238.4603">HDL</tspan></text></g></svg>
